# xmcd CD database file
#
# Track frame offsets:
#	150
#	13196
#	31651
#	45884
#	58900
#	77557
#	95464
#	111338
#	126760
#	141563
#	159355
#	173103
#	188680
#	210311
#	224232
#	237461
#	259553
#	279581
#	293581
#
# Disc length: 4116 seconds
#
# Revision: 0
# Processed by: cddbd v1.5.2PL0 Copyright (c) Steve Scherf et al.
# Submitted via: ACXtractor (MTCDDB.DLL V2003.12.21)
#
DISCID=0f101213
DTITLE=Mixed - A Tast of Tamworth 2008 and 2012
DYEAR=2012
DGENRE=Country
TTITLE0=Lord Don't Take me Yet/ Victoria Baillie
TTITLE1=Country Singer - Adam James
TTITLE2=I Should've Known - Amanda Halloran
TTITLE3=Super Cool Croc - Ryan Sampson
TTITLE4=Best Mates/ Sarah McMongle
TTITLE5=In My Town - Sara Jane Moore
TTITLE6=Cowboy Movie - 8ball Aitken
TTITLE7=Making the Music in Tamworth
TTITLE8=The Long Way Home/ Luke Dickens
TTITLE9=Sing a Long - Lyn Bowrell
TTITLE10=Single Barrel Blues/ Travis List
TTITLE11=No Such Thing As a Sure Thing/ Luke Austin
TTITLE12=Fiesta/ Flicity Urquhart
TTITLE13=Honky tonk Shoes/ Doug Bruce
TTITLE14=Who Gets the Friends/ Allan Caswell
TTITLE15=Trouble/ Montz Matsumoto
TTITLE16=This Town - Damian, Shane and Marcia
TTITLE17=Don't You Ever Treat me Like a Fool/ Harry Hookey
TTITLE18=Things Change/ Camille and Stuie
EXTD=ID3G:   2 YEAR: 2012
EXTT0=
EXTT1=
EXTT2=
EXTT3=
EXTT4=
EXTT5=
EXTT6=
EXTT7=
EXTT8=
EXTT9=
EXTT10=
EXTT11=
EXTT12=
EXTT13=
EXTT14=
EXTT15=
EXTT16=
EXTT17=
EXTT18=
PLAYORDER=
